<svg xmlns="http://www.w3.org/2000/svg" width="300" height="596" viewBox="0 0 300 596">
  <defs>
    <style>
      .cls-1 {
        fill: #84c1de;
      }

      .cls-2 {
        fill: #ffe41f;
      }

      .cls-3 {
        fill: #6cbf0b;
      }

      .cls-4 {
        fill: #e8e974;
      }

      .cls-5 {
        fill: #90d60b;
      }

      .cls-6 {
        fill: #b3ea2d;
      }

      .cls-7 {
        fill: #fce5d6;
      }

      .cls-8 {
        fill: #753f1b;
      }

      .cls-9 {
        fill: #f2dcd1;
      }

      .cls-10 {
        fill: #6664eb;
      }

      .cls-11 {
        fill: #c46869;
      }

      .cls-12 {
        fill: #af585c;
      }

      .cls-13 {
        fill: #99474d;
      }

      .cls-14 {
        fill: #6a82ff;
      }

      .cls-15 {
        fill: #fff;
      }

      .cls-16 {
        fill: #ff4057;
      }

      .cls-17 {
        fill: #ffcad0;
      }
    </style>
  </defs>
  <g id="Layer_2" data-name="Layer 2">
    <rect class="cls-1" x="-470.36" y="-216" width="1436.62" height="812"/>
  </g>
  <g id="Layer_4" data-name="Layer 4">
    <circle class="cls-2" cx="184.52" cy="304.45" r="144.84"/>
  </g>
  <g id="Layer_3" data-name="Layer 3">
    <path class="cls-3" d="M966.26,204.29V480c-83.25,45.32-240.71,35.72-501,39.51q-33.45.48-69.19,1.31c-43,1-88.54,2.5-136.69,4.69q-26.85,1.21-52.56,2.63-42.06,2.29-81.07,4.94C-46.39,544.62-175.17,559.91-271,563.24c-36.32,1.26-67.92.81-95.34-2.22-45.06-5-78.89-16.88-104-39.54v-286c188.72-9.38,335.1,10.21,438.4,31.94l9.24,2c61.43,13.32,82.55,21.89,138.46,28.11a519.36,519.36,0,0,0,63.82,3.44q6.39,0,13.21-.26c47.68-1.51,111.55-9.35,214.19-29.7,30.2-6,63.76-13.05,101.25-21.37,100.86-22.37,210.45-49.34,362.27-54.13C904.7,194.39,938.05,194.54,966.26,204.29Z"/>
    <path class="cls-4" d="M283.35,393.27c-11.28,31.19-49.35,54.14-94.59,54.14-54.13,0-98-32.87-98-73.4s43.87-73.39,98-73.39A127.81,127.81,0,0,1,216,303.49c-47.55,3.37-84.11,23.86-84.11,48.62,0,27.13,43.87,49.13,98,49.13C249.59,401.24,268,398.32,283.35,393.27Z"/>
    <path class="cls-5" d="M842,402V566H-496.26c1.86-1,3.75-2,5.63-3,60.34-31.67,128.65-60.2,203.55-85q26.88-8.89,54.86-17.13c46.83-13.81,95.94-26.19,147-37q31.39-6.69,63.77-12.57Q19,403.93,60.89,397.84,142.1,386.05,228,379.35q9.13-.71,18.31-1.35l3.75-.26c61.12-4.23,123.75-6.41,187.51-6.41C579.33,371.33,715.45,382.15,842,402Z"/>
    <path class="cls-4" d="M244.16,377C282.48,393.94,308,423.86,308,458c0,52.76-60.94,95.53-136.11,95.53-64.37,0-118.31-31.37-132.47-73.49,21.58,7.66,47.52,12.12,75.41,12.12,75.18,0,136.11-32.45,136.11-72.51,0-15.45-9.06-29.77-24.51-41.53Z"/>
    <path class="cls-6" d="M625.9,596H-470.36V517.32c108.89-15.78,224.51-24.89,344.43-26.28q9-.1,18-.15,7,0,13.94,0c70.57,0,139.72,2.67,207,7.82q23,1.76,45.69,3.9,31.31,3,62,6.62,32.82,3.89,64.89,8.6,64.19,9.38,125.07,21.81,27.69,5.64,54.64,11.87C521.51,564.48,575.2,579.39,625.9,596Z"/>
    <path class="cls-4" d="M158.65,502.58q-3.22,3.12-6.16,6.31c-16,17.41-25.41,36.35-26.72,56.16-.11,1.59-.16,3.2-.16,4.8A75.18,75.18,0,0,0,130.37,596h-402c.2-.26.41-.51.62-.76,28.61-35,65.48-64.74,108.21-87.22a392.9,392.9,0,0,1,36.89-17q9-.1,18-.15,7,0,13.94,0c70.57,0,139.72,2.67,207,7.82Q136,500.44,158.65,502.58Z"/>
  </g>
  <g id="Layer_5" data-name="Layer 5">
    <g>
      <g>
        <rect class="cls-7" x="104.96" y="484.99" width="15.26" height="13.66" rx="6.83" transform="translate(225.19 983.65) rotate(180)"/>
        <rect class="cls-7" x="2.57" y="482.95" width="15.26" height="13.66" rx="6.83" transform="translate(-62.24 974.28) rotate(-170.3)"/>
        <g>
          <path class="cls-8" d="M115.08,416.65a15.92,15.92,0,0,1-27.21,16.27H34.08a25.74,25.74,0,0,1-4-.32A15.91,15.91,0,0,1,5.28,417.1,15.92,15.92,0,0,1,7.86,388v-9.78a48.62,48.62,0,0,1,22.59-41,48.32,48.32,0,0,1,26-7.58h10A48.15,48.15,0,0,1,83,332.64h0a49.14,49.14,0,0,1,9.83,4.93,50.84,50.84,0,0,1,4.36,3.2,49.2,49.2,0,0,1,9.57,10.54c.61.91,1.19,1.85,1.75,2.8a48.34,48.34,0,0,1,6.1,18.16,49.28,49.28,0,0,1,.37,6v20.17a15.92,15.92,0,0,1,.11,18.22Z"/>
          <rect class="cls-9" x="48.77" y="419.68" width="28.07" height="14.6" rx="7.3"/>
          <path class="cls-7" d="M20.47,375.3h.29A44.07,44.07,0,0,1,108.62,380a9.59,9.59,0,0,1-2.48,18.86,10.75,10.75,0,0,1-1.52-.12,44.09,44.09,0,0,1-81.91-4.48,9.74,9.74,0,0,1-2.24.26,9.59,9.59,0,0,1,0-19.18Z"/>
        </g>
        <polygon class="cls-10" points="75.09 548.67 90.09 548.67 100.44 504.71 75.09 504.71 75.09 548.67"/>
        <polygon class="cls-10" points="25.09 545.68 38.42 548.67 48.77 504.71 23.41 504.71 25.09 545.68"/>
        <path class="cls-11" d="M108,491.57l8.48-2.31a7.38,7.38,0,0,0,5.17-9l-6.19-16.72a104,104,0,0,1-5.21-20l-1.89-12.19A11.79,11.79,0,0,0,94,423h0a11.79,11.79,0,0,0-8.26,14.42L99,486.39A7.38,7.38,0,0,0,108,491.57Z"/>
        <path class="cls-11" d="M14.94,492.79l-8-3.7a7.38,7.38,0,0,1-3.58-9.77l8.92-15.44A103.76,103.76,0,0,0,20.82,445l3.92-11.7a11.78,11.78,0,0,1,15.6-5.71h0a11.79,11.79,0,0,1,5.72,15.61l-21.35,46A7.38,7.38,0,0,1,14.94,492.79Z"/>
        <path class="cls-12" d="M22.56,509.07l75.9,6.24c8.41.58,14.68-5.81,13.92-14.22L98.86,429.73a7.15,7.15,0,0,0-7.25-6.5L75,427.72a75.56,75.56,0,0,1-36.15-3,9.43,9.43,0,0,0-9.17,8.2L15.94,501A7.11,7.11,0,0,0,22.56,509.07Z"/>
        <ellipse class="cls-13" cx="83.61" cy="546.97" rx="12.36" ry="4.98"/>
        <ellipse class="cls-13" cx="33.09" cy="546.97" rx="12.36" ry="4.98"/>
        <g>
          <path class="cls-8" d="M47,347.68a15,15,0,0,1-2.33,8.3,7.31,7.31,0,0,1-5.92,3.62,6.77,6.77,0,0,1-5-2.42,14.26,14.26,0,0,1-3.26-9.5,16.1,16.1,0,0,1,1-5.73,45.78,45.78,0,0,1,9.55-5.7,8.32,8.32,0,0,1,3.6,3.14,14.28,14.28,0,0,1,2.22,6.35A17.59,17.59,0,0,1,47,347.68Z"/>
          <path class="cls-8" d="M35.13,354a15,15,0,0,1-2.33,8.29,7.27,7.27,0,0,1-5.92,3.62,6.79,6.79,0,0,1-5-2.41,14.26,14.26,0,0,1-3.26-9.5,16.1,16.1,0,0,1,1-5.73,44.93,44.93,0,0,1,9.55-5.7,8.39,8.39,0,0,1,3.59,3.13A14.37,14.37,0,0,1,35,352,17.92,17.92,0,0,1,35.13,354Z"/>
          <ellipse class="cls-8" cx="49.8" cy="344.39" rx="8.25" ry="11.91"/>
          <ellipse class="cls-8" cx="61.42" cy="344.39" rx="8.25" ry="11.91"/>
          <ellipse class="cls-8" cx="74.13" cy="344.39" rx="8.25" ry="11.91"/>
          <path class="cls-8" d="M94,344.39a16.27,16.27,0,0,1-.91,5.43c-1.36,3.85-4.14,6.48-7.34,6.48a7.22,7.22,0,0,1-5.81-3.46,14.88,14.88,0,0,1-2.44-8.45,16.4,16.4,0,0,1,.62-4.52,12.93,12.93,0,0,1,1.82-3.93A8.36,8.36,0,0,1,83.27,333h0a46.14,46.14,0,0,1,9.84,6A16.55,16.55,0,0,1,94,344.39Z"/>
          <path class="cls-8" d="M108.5,354.11a16.79,16.79,0,0,1-.74,3.05,11.26,11.26,0,0,1-3.13,4.81,6.41,6.41,0,0,1-4.22,1.68,7.23,7.23,0,0,1-5.81-3.46,15,15,0,0,1-2.43-8.46,16.79,16.79,0,0,1,.61-4.52l.18-.58a13.06,13.06,0,0,1,1.64-3.35,8.9,8.9,0,0,1,2.58-2.51A49.36,49.36,0,0,1,108.5,354.11Z"/>
          <path class="cls-8" d="M114.6,372.27a6.38,6.38,0,0,1-4,1.52,6,6,0,0,1-2.51-.56,8.39,8.39,0,0,1-3.3-2.9,14.88,14.88,0,0,1-2.44-8.45,17,17,0,0,1,.39-3.63c.07-.3.14-.6.23-.89s.11-.39.17-.58a13.08,13.08,0,0,1,1.65-3.35,9,9,0,0,1,2-2.12c.61.91,1.19,1.85,1.75,2.8A48.34,48.34,0,0,1,114.6,372.27Z"/>
        </g>
        <g>
          <g>
            <g>
              <circle class="cls-14" cx="48.17" cy="374.26" r="4.44"/>
              <path d="M52.61,374.26c0,.15,0,.29,0,.43a4.44,4.44,0,0,0-8.84,0,3,3,0,0,1,0-.43,4.44,4.44,0,1,1,8.88,0Z"/>
            </g>
            <g>
              <circle class="cls-14" cx="83.6" cy="374.26" r="4.44"/>
              <path d="M88,374.26c0,.15,0,.29,0,.43a4.45,4.45,0,0,0-8.85,0c0-.14,0-.28,0-.43a4.45,4.45,0,0,1,8.89,0Z"/>
            </g>
          </g>
          <circle class="cls-15" cx="49.8" cy="373" r="1.68"/>
          <circle class="cls-15" cx="85.28" cy="373" r="1.68"/>
        </g>
        <path class="cls-16" d="M73.42,402.69a2.17,2.17,0,0,1,1.17,4,16.73,16.73,0,0,1-18,0,2.17,2.17,0,0,1,1.16-4h.06a2.22,2.22,0,0,1,.88.2,16.78,16.78,0,0,0,13.78,0,2.17,2.17,0,0,1,.87-.2Z"/>
        <path class="cls-8" d="M43.08,368.69a1.13,1.13,0,0,1-.61-2.08,8.75,8.75,0,0,1,9.4,0,1.13,1.13,0,0,1-.61,2.08h0a1.19,1.19,0,0,1-.46-.1,8.7,8.7,0,0,0-7.2,0,1.23,1.23,0,0,1-.46.1Z"/>
        <path class="cls-8" d="M79.33,368.69a1.13,1.13,0,0,1-.61-2.08,8.75,8.75,0,0,1,9.4,0,1.13,1.13,0,0,1-.6,2.08h0a1.23,1.23,0,0,1-.46-.1,8.7,8.7,0,0,0-7.2,0,1.18,1.18,0,0,1-.45.1Z"/>
      </g>
      <path class="cls-17" d="M63.79,382.15l-.89,2.67a1.94,1.94,0,0,0,2.23,2.52l2.76-.56a2,2,0,0,0,1.07-3.2l-1.87-2.11A2,2,0,0,0,63.79,382.15Z"/>
    </g>
  </g>
</svg>
