<svg xmlns="http://www.w3.org/2000/svg" width="1000" height="812" viewBox="0 0 1000 812">
  <defs>
    <style>
      .cls-1 {
        fill: #84c1de;
      }

      .cls-2 {
        fill: #ffe41f;
      }

      .cls-3 {
        fill: #6cbf0b;
      }

      .cls-4 {
        fill: #e8e974;
      }

      .cls-5 {
        fill: #90d60b;
      }

      .cls-6 {
        fill: #b3ea2d;
      }

      .cls-7 {
        fill: #fce5d6;
      }

      .cls-8 {
        fill: #753f1b;
      }

      .cls-9 {
        fill: #f2dcd1;
      }

      .cls-10 {
        fill: #6664eb;
      }

      .cls-11 {
        fill: #c46869;
      }

      .cls-12 {
        fill: #af585c;
      }

      .cls-13 {
        fill: #99474d;
      }

      .cls-14 {
        fill: #6a82ff;
      }

      .cls-15 {
        fill: #fff;
      }

      .cls-16 {
        fill: #ff4057;
      }

      .cls-17 {
        fill: #ffcad0;
      }
    </style>
  </defs>
  <g id="Layer_2" data-name="Layer 2">
    <rect class="cls-1" x="-120.36" width="1436.62" height="812"/>
  </g>
  <g id="Layer_4" data-name="Layer 4">
    <circle class="cls-2" cx="534.52" cy="552.45" r="144.84"/>
  </g>
  <g id="Layer_3" data-name="Layer 3">
    <path class="cls-3" d="M1316.26,452.29V728c-83.25,45.32-240.71,35.72-501,39.51q-33.45.48-69.19,1.31c-43,1-88.54,2.5-136.69,4.69q-26.85,1.21-52.56,2.63-42.06,2.29-81.07,4.94C303.61,792.62,174.83,807.91,79,811.24c-36.32,1.26-67.92.81-95.34-2.22-45.06-5-78.89-16.88-104-39.54v-286c188.72-9.38,335.1,10.21,438.4,31.94l9.24,2c61.43,13.32,82.55,21.89,138.46,28.11a519.36,519.36,0,0,0,63.82,3.44q6.39,0,13.21-.26c47.68-1.51,111.55-9.35,214.19-29.7,30.2-6,63.76-13.05,101.25-21.37,100.86-22.37,210.45-49.34,362.27-54.13C1254.7,442.39,1288.05,442.54,1316.26,452.29Z"/>
    <path class="cls-4" d="M633.35,641.27c-11.28,31.19-49.35,54.14-94.59,54.14-54.13,0-98-32.87-98-73.4s43.87-73.39,98-73.39A127.81,127.81,0,0,1,566,551.49c-47.55,3.37-84.11,23.86-84.11,48.62,0,27.13,43.87,49.13,98,49.13C599.59,649.24,618,646.32,633.35,641.27Z"/>
    <path class="cls-5" d="M1316.26,648V812H-22c1.86-1,3.75-2,5.63-3,60.34-31.67,128.65-60.2,203.55-85q26.88-8.89,54.85-17.13c46.84-13.81,96-26.19,147-37q31.4-6.69,63.77-12.57,40.45-7.35,82.34-13.44,81.21-11.79,167.1-18.49,9.13-.71,18.31-1.35l3.75-.26c61.12-4.23,123.75-6.41,187.51-6.41C1053.59,617.33,1189.71,628.15,1316.26,648Z"/>
    <path class="cls-4" d="M718.41,623c38.33,16.91,63.8,46.83,63.8,81,0,52.76-60.94,95.53-136.11,95.53-64.37,0-118.31-31.37-132.47-73.49,21.58,7.66,47.52,12.12,75.41,12.12,75.18,0,136.11-32.45,136.11-72.51,0-15.45-9.06-29.77-24.51-41.53Z"/>
    <path class="cls-6" d="M975.9,812H-120.36V733.32C-11.47,717.54,104.15,708.43,224.07,707q9-.1,18-.15,7,0,13.94,0c70.57,0,139.72,2.67,207,7.82q23,1.76,45.69,3.9,31.3,3,62,6.62,32.82,3.88,64.89,8.6,64.18,9.38,125.07,21.81,27.69,5.64,54.64,11.87C871.51,780.48,925.2,795.39,975.9,812Z"/>
    <path class="cls-4" d="M508.65,718.58q-3.22,3.12-6.16,6.31c-16,17.41-25.41,36.35-26.72,56.16-.11,1.59-.16,3.2-.16,4.8A75.18,75.18,0,0,0,480.37,812h-402c.2-.26.41-.51.62-.76,28.61-35,65.48-64.74,108.21-87.22a392.9,392.9,0,0,1,36.89-17q9-.1,18-.15,7,0,13.94,0c70.57,0,139.72,2.67,207,7.82Q486,716.44,508.65,718.58Z"/>
  </g>
  <g id="Layer_5" data-name="Layer 5">
    <g>
      <rect class="cls-7" x="394.27" y="687.41" width="18.59" height="16.64" rx="8.32" transform="translate(807.13 1391.45) rotate(180)"/>
      <rect class="cls-7" x="269.57" y="684.92" width="18.59" height="16.64" rx="8.32" transform="translate(436.99 1423.54) rotate(-170.3)"/>
      <g>
        <path class="cls-8" d="M406.59,604.18A19.38,19.38,0,0,1,373.46,624H307.94a32.15,32.15,0,0,1-4.93-.38,19.38,19.38,0,0,1-30.36-16,20,20,0,0,1,.22-2.92A19.38,19.38,0,0,1,276,569.34V557.43a59.19,59.19,0,0,1,59.13-59.13h12.18a58.46,58.46,0,0,1,20.17,3.57h0a58.58,58.58,0,0,1,12,6,59.46,59.46,0,0,1,17,16.73c.75,1.11,1.46,2.25,2.13,3.41a58.64,58.64,0,0,1,7.88,29.41V582a19.38,19.38,0,0,1,.14,22.19Z"/>
        <rect class="cls-9" x="325.84" y="607.86" width="34.18" height="17.78" rx="8.89"/>
        <path class="cls-7" d="M291.37,553.82h.35a53.68,53.68,0,0,1,107,5.66,11.68,11.68,0,0,1-3,23,11.3,11.3,0,0,1-1.86-.15,53.69,53.69,0,0,1-99.75-5.45,11.68,11.68,0,1,1-2.73-23Z"/>
      </g>
      <polygon class="cls-10" points="357.89 764.96 376.15 764.96 388.76 711.42 357.89 711.42 357.89 764.96"/>
      <polygon class="cls-10" points="297 761.32 313.23 764.96 325.84 711.42 294.95 711.42 297 761.32"/>
      <path class="cls-11" d="M398,695.41l10.33-2.8a9,9,0,0,0,6.29-11l-7.53-20.36a125.36,125.36,0,0,1-6.34-24.39L398.42,622A14.36,14.36,0,0,0,380.86,612h0a14.36,14.36,0,0,0-10.06,17.57L387,689.11A9,9,0,0,0,398,695.41Z"/>
      <path class="cls-11" d="M284.64,696.9l-9.7-4.5a9,9,0,0,1-4.36-11.9l10.86-18.81a126.11,126.11,0,0,0,10.36-23l4.77-14.24a14.34,14.34,0,0,1,19-7h0a14.35,14.35,0,0,1,7,19l-26,56A9,9,0,0,1,284.64,696.9Z"/>
      <path class="cls-12" d="M293.91,716.72l92.43,7.61c10.25.71,17.89-7.08,17-17.31l-16.48-86.91a8.7,8.7,0,0,0-8.82-7.92l-20.21,5.47a92.06,92.06,0,0,1-44-3.67,11.47,11.47,0,0,0-11.17,10l-16.74,82.9A8.64,8.64,0,0,0,293.91,716.72Z"/>
      <ellipse class="cls-13" cx="368.26" cy="762.89" rx="15.05" ry="6.06"/>
      <ellipse class="cls-13" cx="306.74" cy="762.89" rx="15.05" ry="6.06"/>
      <g>
        <path class="cls-8" d="M323.62,520.19a18.21,18.21,0,0,1-2.84,10.1c-1.82,2.72-4.38,4.41-7.2,4.41a8.25,8.25,0,0,1-6.07-3,17.3,17.3,0,0,1-4-11.56,19.66,19.66,0,0,1,1.24-7,55.42,55.42,0,0,1,11.63-7,10.21,10.21,0,0,1,4.38,3.83,17.27,17.27,0,0,1,2.7,7.73A20.39,20.39,0,0,1,323.62,520.19Z"/>
        <path class="cls-8" d="M309.23,527.86a18.24,18.24,0,0,1-2.84,10.1c-1.83,2.72-4.38,4.41-7.21,4.41a8.22,8.22,0,0,1-6.06-3,17.3,17.3,0,0,1-4-11.56,19.76,19.76,0,0,1,1.24-7A55.81,55.81,0,0,1,302,513.93a10.14,10.14,0,0,1,4.38,3.83,17.39,17.39,0,0,1,2.7,7.73A20.39,20.39,0,0,1,309.23,527.86Z"/>
        <ellipse class="cls-8" cx="327.09" cy="516.18" rx="10.04" ry="14.51"/>
        <ellipse class="cls-8" cx="341.25" cy="516.18" rx="10.04" ry="14.51"/>
        <ellipse class="cls-8" cx="356.72" cy="516.18" rx="10.04" ry="14.51"/>
        <path class="cls-8" d="M380.91,516.18a19.66,19.66,0,0,1-1.1,6.61c-1.66,4.69-5,7.89-8.94,7.89-2.76,0-5.26-1.6-7.07-4.21a18.1,18.1,0,0,1-3-10.29,19.94,19.94,0,0,1,.75-5.51,15.88,15.88,0,0,1,2.22-4.79,10.13,10.13,0,0,1,4.05-3.54h0a55.72,55.72,0,0,1,12,7.27A20,20,0,0,1,380.91,516.18Z"/>
        <path class="cls-8" d="M398.57,528a18.64,18.64,0,0,1-.9,3.71,13.66,13.66,0,0,1-3.81,5.86,7.84,7.84,0,0,1-5.13,2c-2.76,0-5.26-1.61-7.08-4.22a18.13,18.13,0,0,1-3-10.29,19.94,19.94,0,0,1,.75-5.51c.06-.24.14-.47.21-.7a15.51,15.51,0,0,1,2-4.08,10.84,10.84,0,0,1,3.14-3.06A60,60,0,0,1,398.57,528Z"/>
        <path class="cls-8" d="M406,550.13a7.75,7.75,0,0,1-4.92,1.85,7.3,7.3,0,0,1-3.05-.68,10.25,10.25,0,0,1-4-3.53,18.18,18.18,0,0,1-3-10.29,20.37,20.37,0,0,1,.48-4.42c.08-.37.17-.74.27-1.09s.14-.48.22-.71a15.82,15.82,0,0,1,2-4.08,11.08,11.08,0,0,1,2.43-2.57c.75,1.11,1.46,2.25,2.13,3.41A58.67,58.67,0,0,1,406,550.13Z"/>
      </g>
      <g>
        <g>
          <g>
            <circle class="cls-14" cx="325.1" cy="552.56" r="5.41"/>
            <path d="M330.52,552.56a4.53,4.53,0,0,1,0,.52,5.41,5.41,0,0,0-10.77,0,4.53,4.53,0,0,1,0-.52,5.42,5.42,0,0,1,10.83,0Z"/>
          </g>
          <g>
            <circle class="cls-14" cx="368.25" cy="552.56" r="5.41"/>
            <path d="M373.66,552.56c0,.17,0,.35,0,.52a5.41,5.41,0,0,0-10.78,0c0-.17,0-.35,0-.52a5.41,5.41,0,0,1,10.82,0Z"/>
          </g>
        </g>
        <circle class="cls-15" cx="327.09" cy="551.02" r="2.05"/>
        <circle class="cls-15" cx="370.3" cy="551.02" r="2.05"/>
      </g>
      <path class="cls-16" d="M355.86,587.18a2.63,2.63,0,0,1,1.42,4.85,20.33,20.33,0,0,1-21.9,0,2.63,2.63,0,0,1,1.42-4.85h.07a2.61,2.61,0,0,1,1.07.24,20.35,20.35,0,0,0,16.78,0,2.61,2.61,0,0,1,1.07-.24Z"/>
      <path class="cls-8" d="M318.9,545.77a1.38,1.38,0,0,1-.74-2.54,10.65,10.65,0,0,1,11.45,0,1.38,1.38,0,0,1-.74,2.54h0a1.32,1.32,0,0,1-.56-.13,10.7,10.7,0,0,0-8.77,0,1.39,1.39,0,0,1-.56.13Z"/>
      <path class="cls-8" d="M363.06,545.77a1.38,1.38,0,0,1-.74-2.54,10.63,10.63,0,0,1,11.44,0,1.38,1.38,0,0,1-.74,2.54h0a1.39,1.39,0,0,1-.56-.13,10.7,10.7,0,0,0-8.77,0,1.31,1.31,0,0,1-.55.13Z"/>
    </g>
    <path class="cls-17" d="M344.36,561.47l-1.55,4.64a2,2,0,0,0,2.24,2.53l4.8-1a2,2,0,0,0,1.06-3.2l-3.25-3.67A1.94,1.94,0,0,0,344.36,561.47Z"/>
  </g>
</svg>
