<svg xmlns="http://www.w3.org/2000/svg" xmlns:xlink="http://www.w3.org/1999/xlink" width="1920" height="928" viewBox="0 0 1920 928">
  <defs>
    <style>
      .cls-1 {
        fill: #84c1de;
      }

      .cls-2 {
        fill: #ffe41f;
      }

      .cls-3 {
        fill: #6cbf0b;
      }

      .cls-4 {
        fill: #e8e974;
      }

      .cls-5 {
        fill: #90d60b;
      }

      .cls-6 {
        fill: #b3ea2d;
      }

      .cls-7 {
        fill: #fce5d6;
      }

      .cls-8 {
        fill: #753f1b;
      }

      .cls-9 {
        fill: #f2dcd1;
      }

      .cls-10 {
        fill: #6664eb;
      }

      .cls-11 {
        fill: #c46869;
      }

      .cls-12 {
        fill: #af585c;
      }

      .cls-13 {
        fill: #99474d;
      }

      .cls-14 {
        fill: #6a82ff;
      }

      .cls-15 {
        fill: #fff;
      }

      .cls-16 {
        fill: #ff4057;
      }

      .cls-17 {
        fill: #ffcad0;
      }
    </style>
  </defs>
  <g id="Layer_1" data-name="Layer 1">
    <image width="563" height="418" transform="translate(270 -48.29) scale(2.45)" xlink:href="BG1.png"/>
  </g>
  <g id="Layer_2" data-name="Layer 2">
    <rect class="cls-1" x="-13" y="-168.96" width="1946" height="1099.91"/>
  </g>
  <g id="Layer_4" data-name="Layer 4">
    <circle class="cls-2" cx="874.08" cy="579.38" r="196.19"/>
  </g>
  <g id="Layer_3" data-name="Layer 3">
    <path class="cls-3" d="M1933,443.71V817.13c-112.77,61.4-326,48.38-678.62,53.51q-45.3.66-93.72,1.78c-58.25,1.38-119.93,3.39-185.15,6.36q-36.37,1.65-71.2,3.55-57,3.12-109.82,6.7C561.3,904.7,386.85,925.41,257,929.93c-49.2,1.7-92,1.1-129.14-3C66.81,920.18,21,904.05-13,873.37V485.94c255.63-12.7,453.91,13.82,593.84,43.27,4.23.88,8.4,1.79,12.52,2.68,83.2,18.05,111.81,29.65,187.55,38.07a703.5,703.5,0,0,0,86.44,4.67q8.67-.07,17.9-.36c64.58-2,151.11-12.66,290.14-40.23,40.9-8.11,86.37-17.68,137.15-28.95,136.63-30.3,285.07-66.84,490.73-73.32C1849.62,430.3,1894.78,430.5,1933,443.71Z"/>
    <path class="cls-4" d="M1007.94,699.69C992.67,742,941.1,773,879.83,773c-73.33,0-132.76-44.51-132.76-99.41s59.43-99.42,132.76-99.42a174.16,174.16,0,0,1,36.82,3.88c-64.41,4.57-113.93,32.33-113.93,65.87,0,36.75,59.43,66.54,132.76,66.54C962.22,710.48,987.12,706.52,1007.94,699.69Z"/>
    <path class="cls-5" d="M1933,708.86V931H120.23c2.52-1.36,5.08-2.7,7.63-4C209.59,884,302.13,845.37,403.58,811.79q36.41-12.06,74.31-23.22,95.16-28,199.12-50.17,42.54-9,86.39-17,54.79-10,111.53-18.2,110-16,226.35-25,12.38-1,24.81-1.83c1.69-.13,3.38-.24,5.07-.35,82.79-5.73,167.63-8.69,254-8.69C1577.19,667.26,1761.58,681.92,1933,708.86Z"/>
    <path class="cls-4" d="M1123.18,675c51.9,22.89,86.42,63.43,86.42,109.64,0,71.47-82.55,129.4-184.38,129.4C938,914,865,871.55,845.78,814.49c29.23,10.38,64.37,16.42,102.15,16.42,101.84,0,184.37-44,184.37-98.22,0-20.94-12.27-40.33-33.2-56.26Z"/>
    <path class="cls-6" d="M1472,931H-13V824.38C134.5,803,291.11,790.66,453.55,788.79q12.13-.15,24.34-.22,9.42,0,18.88,0c95.58,0,189.25,3.63,280.38,10.61q31.15,2.37,61.89,5.27,42.4,4,84,9Q967.53,818.65,1011,825q86.94,12.71,169.42,29.54,37.5,7.63,74,16.07C1330.56,888.26,1403.28,908.45,1472,931Z"/>
    <path class="cls-4" d="M839,804.41q-4.38,4.23-8.35,8.55C809,836.55,796.27,862.2,794.49,889q-.21,3.24-.21,6.5A102.15,102.15,0,0,0,800.72,931H256.17c.27-.36.55-.69.83-1,38.75-47.41,88.7-87.7,146.58-118.14a526.76,526.76,0,0,1,50-23q12.13-.15,24.34-.22,9.42,0,18.88,0c95.58,0,189.25,3.63,280.38,10.61Q808.31,801.51,839,804.41Z"/>
  </g>
  <g id="Layer_5" data-name="Layer 5">
    <g>
      <rect class="cls-7" x="684.1" y="762.19" width="25.18" height="22.54" rx="11.27" transform="translate(1393.38 1546.91) rotate(-180)"/>
      <rect class="cls-7" x="515.19" y="758.81" width="25.18" height="22.54" rx="11.27" transform="translate(918.31 1618.06) rotate(-170.3)"/>
      <g>
        <path class="cls-8" d="M700.78,649.44a26.25,26.25,0,0,1-44.87,26.85H567.16a43.32,43.32,0,0,1-6.68-.52,26.25,26.25,0,0,1-41.12-21.64,27.11,27.11,0,0,1,.29-4,26.26,26.26,0,0,1,4.27-47.93V586.12a80.48,80.48,0,0,1,53-75.35A79.22,79.22,0,0,1,604,506h16.5a79.24,79.24,0,0,1,27.33,4.84h0A79.15,79.15,0,0,1,664.07,519a82.43,82.43,0,0,1,7.19,5.28A81.29,81.29,0,0,1,687,541.66q1.53,2.26,2.89,4.63a79.44,79.44,0,0,1,10.67,39.83v33.27a26.23,26.23,0,0,1,.18,30.05Z"/>
        <rect class="cls-9" x="591.41" y="654.44" width="46.3" height="24.08" rx="10"/>
        <path class="cls-7" d="M544.72,581.24h.47a72.7,72.7,0,0,1,144.93,7.67A15.82,15.82,0,0,1,686,620a16,16,0,0,1-2.51-.2,72.73,72.73,0,0,1-135.12-7.39,15.53,15.53,0,0,1-3.69.44,15.82,15.82,0,1,1,0-31.64Z"/>
      </g>
      <polygon class="cls-10" points="634.81 867.23 659.56 867.23 676.64 794.71 634.81 794.71 634.81 867.23"/>
      <polygon class="cls-10" points="552.34 862.3 574.32 867.23 591.41 794.71 549.57 794.71 552.34 862.3"/>
      <path class="cls-11" d="M689.12,773l14-3.8a12.17,12.17,0,0,0,8.53-14.89l-10.21-27.59a171.27,171.27,0,0,1-8.59-33l-3.12-20.1A19.45,19.45,0,0,0,665.93,660h0a19.44,19.44,0,0,0-13.62,23.79l21.92,80.72A12.17,12.17,0,0,0,689.12,773Z"/>
      <path class="cls-11" d="M535.6,775.05,522.45,769a12.18,12.18,0,0,1-5.9-16.13l14.71-25.47a169.84,169.84,0,0,0,14-31.11L551.75,677a19.45,19.45,0,0,1,25.75-9.42h0a19.44,19.44,0,0,1,9.42,25.74l-35.2,75.87A12.18,12.18,0,0,1,535.6,775.05Z"/>
      <path class="cls-12" d="M548.16,801.9l125.2,10.3c13.89,1,24.23-9.59,23-23.45L674,671a11.76,11.76,0,0,0-11.94-10.72l-27.39,7.4c-33.6,5.29-59.63-5-59.63-5a15.57,15.57,0,0,0-15.14,13.52L537.24,788.54A11.72,11.72,0,0,0,548.16,801.9Z"/>
      <ellipse class="cls-13" cx="648.87" cy="864.43" rx="20.38" ry="8.21"/>
      <ellipse class="cls-13" cx="565.53" cy="864.43" rx="20.38" ry="8.21"/>
      <g>
        <path class="cls-8" d="M588.4,535.68a24.8,24.8,0,0,1-3.84,13.68c-2.48,3.68-5.94,6-9.77,6a11.13,11.13,0,0,1-8.21-4c-3.28-3.59-5.39-9.27-5.39-15.66a26.63,26.63,0,0,1,1.68-9.46,75.29,75.29,0,0,1,15.75-9.41,13.9,13.9,0,0,1,5.94,5.18,23.55,23.55,0,0,1,3.65,10.48A28,28,0,0,1,588.4,535.68Z"/>
        <path class="cls-8" d="M568.9,546.07a24.74,24.74,0,0,1-3.84,13.68c-2.47,3.68-5.93,6-9.76,6a11.17,11.17,0,0,1-8.22-4c-3.27-3.59-5.39-9.27-5.39-15.66a26.63,26.63,0,0,1,1.68-9.46,75.36,75.36,0,0,1,15.76-9.41,13.88,13.88,0,0,1,5.93,5.18,23.68,23.68,0,0,1,3.66,10.47A28.3,28.3,0,0,1,568.9,546.07Z"/>
        <ellipse class="cls-8" cx="593.1" cy="530.24" rx="13.6" ry="19.65"/>
        <ellipse class="cls-8" cx="612.27" cy="530.24" rx="13.6" ry="19.65"/>
        <ellipse class="cls-8" cx="633.23" cy="530.24" rx="13.6" ry="19.65"/>
        <path class="cls-8" d="M666,530.24a26.68,26.68,0,0,1-1.5,9c-2.25,6.35-6.83,10.69-12.11,10.69-3.74,0-7.13-2.17-9.58-5.7a24.54,24.54,0,0,1-4-14,27.5,27.5,0,0,1,1-7.46,21.74,21.74,0,0,1,3-6.48,13.88,13.88,0,0,1,5.49-4.81h0a75.88,75.88,0,0,1,16.22,9.86A26.86,26.86,0,0,1,666,530.24Z"/>
        <path class="cls-8" d="M689.93,546.29a26.13,26.13,0,0,1-1.22,5,18.61,18.61,0,0,1-5.16,7.94,10.63,10.63,0,0,1-7,2.76c-3.74,0-7.12-2.18-9.58-5.71a24.61,24.61,0,0,1-4-13.94,27.5,27.5,0,0,1,1-7.46c.1-.33.19-.64.3-1a21.41,21.41,0,0,1,2.71-5.53,14.47,14.47,0,0,1,4.25-4.13A81,81,0,0,1,689.93,546.29Z"/>
        <path class="cls-8" d="M700,576.23a10.52,10.52,0,0,1-6.66,2.52,9.89,9.89,0,0,1-4.14-.93,13.83,13.83,0,0,1-5.44-4.78,24.54,24.54,0,0,1-4-13.95,27.61,27.61,0,0,1,.64-6c.11-.5.23-1,.37-1.48.09-.32.19-.64.29-1a21,21,0,0,1,2.72-5.53,15.08,15.08,0,0,1,3.29-3.49q1.53,2.26,2.89,4.63A79.48,79.48,0,0,1,700,576.23Z"/>
      </g>
      <g>
        <g>
          <g>
            <circle class="cls-14" cx="590.41" cy="579.53" r="7.33"/>
            <path d="M597.74,579.53c0,.23,0,.46,0,.7a7.33,7.33,0,0,0-14.6,0c0-.24,0-.47,0-.7a7.33,7.33,0,0,1,14.66,0Z"/>
          </g>
          <g>
            <circle class="cls-14" cx="648.85" cy="579.53" r="7.33"/>
            <path d="M656.18,579.53c0,.23,0,.46,0,.7a7.33,7.33,0,0,0-14.6,0c0-.24,0-.47,0-.7a7.33,7.33,0,1,1,14.66,0Z"/>
          </g>
        </g>
        <circle class="cls-15" cx="593.1" cy="577.45" r="2.78"/>
        <circle class="cls-15" cx="651.63" cy="577.45" r="2.78"/>
      </g>
      <path class="cls-16" d="M632.07,626.43A3.57,3.57,0,0,1,634,633a27.61,27.61,0,0,1-29.66,0,3.57,3.57,0,0,1,1.92-6.57h.1a3.48,3.48,0,0,1,1.45.32,27.66,27.66,0,0,0,22.72,0,3.48,3.48,0,0,1,1.45-.32Z"/>
      <path class="cls-8" d="M582,570.33a1.87,1.87,0,0,1-1-3.44,14.44,14.44,0,0,1,15.51,0,1.87,1.87,0,0,1-1,3.44h0a1.75,1.75,0,0,1-.75-.17,14.42,14.42,0,0,0-11.88,0,1.83,1.83,0,0,1-.76.17Z"/>
      <path class="cls-8" d="M641.82,570.33a1.87,1.87,0,0,1-1-3.44,14.44,14.44,0,0,1,15.51,0,1.87,1.87,0,0,1-1,3.44h-.06a1.79,1.79,0,0,1-.75-.17,14.42,14.42,0,0,0-11.88,0,1.83,1.83,0,0,1-.76.17Z"/>
    </g>
    <path class="cls-17" d="M622,593.66l-.72,2.15a3.9,3.9,0,0,0,4.47,5.06l2.23-.46a3.89,3.89,0,0,0,2.13-6.4l-1.5-1.7A3.89,3.89,0,0,0,622,593.66Z"/>
  </g>
</svg>
