<svg width="550" height="550" viewBox="0 0 550 550" fill="none" xmlns="http://www.w3.org/2000/svg">
<rect width="550" height="550" rx="70" fill="white"/>
<circle cx="275" cy="275" r="228" stroke="#694BC3" stroke-width="14"/>
<circle cx="275" cy="275" r="196.677" stroke="#694BC3" stroke-width="16"/>
<path d="M238.743 203.391C224.466 189.872 217.256 156.075 174.283 156.075C138.448 156.075 116.961 183.113 117.39 220.424C117.818 257.736 152.796 270.985 174.283 270.985C188.631 270.985 188.631 291.263 217.256 291.263C238.743 291.263 260.158 270.985 260.158 244.082C260.158 223.669 253.091 216.91 238.743 203.391ZM217.256 277.744C206.62 277.744 203.265 274.365 198.125 269.227C193.485 264.563 186.347 257.466 174.283 257.466C162.576 257.466 132.023 250.774 131.666 220.289C131.452 203.323 136.521 189.061 145.872 180.071C153.153 173.109 162.719 169.594 174.283 169.594C198.125 169.594 206.477 182.166 216.114 196.767C220.04 202.715 223.752 208.325 228.678 212.922C242.241 225.697 245.881 229.144 245.881 244.082C245.881 263.347 230.748 277.744 217.256 277.744Z" fill="#694CB3"/>
<path d="M188.774 247.327C202.572 247.327 213.758 236.735 213.758 223.669C213.758 210.603 202.572 200.011 188.774 200.011C174.975 200.011 163.789 210.603 163.789 223.669C163.789 236.735 174.975 247.327 188.774 247.327Z" fill="#694CB3"/>
<path d="M307.521 348.002C306.156 326.852 297.59 306.232 281.519 290.161C265.297 306.384 256.352 327.003 254.608 348.002C264.311 353.156 273.256 359.827 281.065 367.939C288.873 359.903 297.818 353.232 307.521 348.002V348.002ZM281.444 314.344C286.219 322.152 289.555 330.869 291.298 339.966C287.735 342.24 284.4 344.742 281.14 347.395C277.956 344.818 274.545 342.316 271.058 340.042C272.953 330.945 276.44 322.227 281.444 314.344V314.344ZM281.065 392.121C274.848 382.645 266.965 374.382 257.868 367.863C256.882 367.181 255.821 366.65 254.835 365.892C255.821 366.574 256.882 367.181 257.792 367.787C243.01 357.098 224.892 350.806 205.258 350.806C205.258 391.136 230.729 425.248 266.131 437.908C270.906 439.652 275.91 440.94 281.065 441.774C286.219 440.865 291.147 439.576 295.998 437.908C331.4 425.248 356.871 391.136 356.871 350.806C325.184 350.806 297.363 367.256 281.065 392.121ZM291.071 423.581C287.735 424.718 284.4 425.627 280.989 426.386C277.653 425.703 274.394 424.794 271.285 423.656C246.345 414.711 228.076 393.41 222.39 367.939C230.729 369.91 238.689 373.321 246.042 378.021L245.89 378.097C246.876 378.779 247.861 379.461 248.847 379.992L249.377 380.295C256.882 385.753 263.326 392.5 268.405 400.384L281.065 419.79L293.724 400.46C298.955 392.5 305.474 385.677 312.903 380.295L313.434 379.916C314.116 379.537 314.798 379.082 315.481 378.627L315.405 378.476C322.834 373.548 331.097 369.91 339.739 367.863C334.053 393.41 315.86 414.711 291.071 423.581V423.581ZM258.247 368.09C258.095 368.015 257.944 367.863 257.868 367.787C257.868 367.787 257.944 367.787 257.944 367.863C258.019 367.939 258.095 368.015 258.247 368.09V368.09Z" fill="#694CB3"/>
<path d="M425.668 253.036L424.864 253.435L424.627 254.296C422.54 261.894 420.88 268.038 419.527 273.045C417.378 280.998 416.004 286.083 414.922 289.577C414.045 292.41 413.398 294.064 412.739 295.293C412.1 296.486 411.413 297.347 410.329 298.571C405.833 303.524 400.62 305.093 395.883 304.897C391.059 304.698 386.718 302.662 384.184 300.397C382.2 298.623 381.093 297.061 379.901 294.441C379.061 292.596 378.215 290.316 377.038 287.142C376.453 285.563 375.785 283.764 374.996 281.686L374.824 281.234L374.461 280.91L308.132 221.613L307.772 221.291L307.304 221.168C305.869 220.791 304.491 220.446 303.169 220.116C298.453 218.936 294.446 217.934 291.084 216.262C287.003 214.231 284.014 211.257 282.448 205.594L282.446 205.588C280.718 199.422 282.327 192.857 286.754 187.976C287.836 186.783 288.578 186.038 289.661 185.299C290.777 184.537 292.325 183.736 295.054 182.571C298.477 181.111 303.548 179.164 311.585 176.078C316.421 174.222 322.332 171.952 329.604 169.129L330.428 168.809L330.746 167.989L331.87 165.098C336.2 157.31 345.562 153.666 353.681 156.555L353.684 156.555L369.518 162.166C369.52 162.167 369.522 162.168 369.524 162.168C372.733 163.329 375.399 165.418 377.347 168.025L378.405 169.441L379.949 168.569C382.052 167.383 384.429 166.621 386.935 166.349L386.946 166.348L386.956 166.347C391.862 165.764 396.694 167.311 400.354 170.583L415.944 184.52C419.535 187.73 421.601 192.336 421.587 197.306C421.522 199.773 421.003 202.2 419.989 204.448L419.257 206.072L420.799 206.977C423.614 208.628 425.986 211.042 427.483 214.09C427.484 214.091 427.485 214.093 427.486 214.095L434.761 229.143L434.762 229.146C438.514 236.881 435.817 246.536 428.425 251.614L428.303 251.687C427.863 251.952 427.809 251.985 427.628 252.076C427.51 252.135 427.388 252.194 427.211 252.28C426.919 252.421 426.48 252.634 425.668 253.036ZM386.238 272.844L384.629 273.653L385.266 275.327L390.433 288.925C392.787 295.119 401.667 294.259 403.352 288.006C403.352 288.003 403.353 288.001 403.354 287.999L409.747 264.764L410.937 260.436L406.905 262.462L386.238 272.844ZM407.544 217.807L407.543 217.809L367.038 255.347L368.407 256.804L367.063 258.285L374.082 264.559L375.102 265.471L376.329 264.857L422.148 241.903L422.369 241.792L422.556 241.632C424.585 239.892 425.365 237.031 424.17 234.496L424.166 234.488L424.162 234.479L416.881 219.42L416.877 219.411L416.873 219.402C415.106 215.836 410.414 215.153 407.544 217.807ZM323.903 217.989L323.415 219.265L324.436 220.177L331.454 226.451L333.08 227.905L334.399 226.169L367.769 182.256C367.769 182.255 367.77 182.255 367.77 182.254C370.208 179.054 368.922 174.567 365.199 173.207L365.19 173.204L365.181 173.201L349.335 167.586L349.326 167.582L349.317 167.579C346.653 166.664 343.868 167.733 342.338 169.919L342.197 170.12L342.109 170.35L323.903 217.989ZM323.217 187.543L324.836 183.337L320.613 184.977L297.955 193.775C297.952 193.776 297.949 193.777 297.947 193.778C291.86 196.096 291.927 204.952 298.377 206.629L312.538 210.311L314.28 210.763L314.923 209.093L323.217 187.543ZM355.558 247.999L356.923 249.22L358.269 247.976L407.926 202.067C407.927 202.066 407.929 202.065 407.93 202.063C410.697 199.528 410.283 195.47 407.925 193.362L392.335 179.425C389.976 177.316 385.868 177.331 383.618 180.328C383.616 180.33 383.615 180.332 383.614 180.333L342.815 234.16L341.709 235.619L343.075 236.839L355.558 247.999Z" fill="#694CB3" stroke="#694CB3" stroke-width="4"/>
</svg>
