<svg width="44" height="44" viewBox="0 0 44 44" fill="none" xmlns="http://www.w3.org/2000/svg">
<path d="M16.5 7.33337V40.3334M11 7.33337H31.1667C32.1391 7.33337 33.0717 7.71968 33.7594 8.40732C34.447 9.09495 34.8333 10.0276 34.8333 11V33C34.8333 33.9725 34.447 34.9051 33.7594 35.5928C33.0717 36.2804 32.1391 36.6667 31.1667 36.6667H11C10.5138 36.6667 10.0474 36.4736 9.70363 36.1297C9.35981 35.7859 9.16666 35.3196 9.16666 34.8334V9.16671C9.16666 8.68048 9.35981 8.21416 9.70363 7.87035C10.0474 7.52653 10.5138 7.33337 11 7.33337V7.33337Z" stroke="#694CB3" stroke-width="3.66667" stroke-linecap="round" stroke-linejoin="round"/>
<path d="M23.8333 14.6666H27.5" stroke="#694CB3" stroke-width="3.66667" stroke-linecap="round" stroke-linejoin="round"/>
<path d="M23.8333 22H27.5" stroke="#694CB3" stroke-width="3.66667" stroke-linecap="round" stroke-linejoin="round"/>
</svg>
